<mxfile host="app.diagrams.net" agent="Mozilla/5.0 (Windows NT 10.0; Win64; x64) AppleWebKit/537.36 (KHTML, like Gecko) Chrome/136.0.0.0 Safari/537.36" version="27.1.1">
  <diagram name="Страница — 1" id="qw-ywx6NArzQJ_NDMJmi">
    <mxGraphModel dx="3588" dy="1098" grid="0" gridSize="10" guides="1" tooltips="1" connect="1" arrows="1" fold="1" page="0" pageScale="1" pageWidth="827" pageHeight="1169" math="0" shadow="0">
      <root>
        <mxCell id="0" />
        <mxCell id="1" parent="0" />
        <mxCell id="dDj1AJJ1aCDs6tU35lW--1" value="&lt;div style=&quot;text-align: center;&quot;&gt;&lt;span style=&quot;background-color: transparent; color: light-dark(rgb(0, 0, 0), rgb(255, 255, 255));&quot;&gt;&lt;font style=&quot;font-size: 16px;&quot;&gt;&amp;lt;&amp;lt;interface&amp;gt;&amp;gt;&lt;/font&gt;&lt;/span&gt;&lt;/div&gt;&lt;div style=&quot;text-align: center;&quot;&gt;&lt;span style=&quot;background-color: transparent; color: light-dark(rgb(0, 0, 0), rgb(255, 255, 255));&quot;&gt;&lt;font style=&quot;font-size: 16px;&quot;&gt;ICharacterBuilder&lt;/font&gt;&lt;/span&gt;&lt;/div&gt;&lt;div&gt;SetName(string: ICharacterBuilder&lt;br&gt;SetHeight(double)&lt;br&gt;ICharacterBuilder)&lt;br&gt;SetHairBype(string):&lt;br&gt;ICharacterBuilder&lt;br&gt;SetEyeColor(string):&lt;br&gt;ICharacterBuilder&lt;/div&gt;&lt;div&gt;AddItern(string):&lt;br&gt;ICharacterButor&lt;br&gt;Build(): Character&lt;/div&gt;" style="rounded=0;whiteSpace=wrap;html=1;align=left;" vertex="1" parent="1">
          <mxGeometry x="-2007" y="-307" width="173" height="233" as="geometry" />
        </mxCell>
        <mxCell id="dDj1AJJ1aCDs6tU35lW--2" value="&lt;div style=&quot;text-align: center;&quot;&gt;&lt;span style=&quot;background-color: transparent; color: light-dark(rgb(0, 0, 0), rgb(255, 255, 255));&quot;&gt;&lt;font style=&quot;font-size: 16px;&quot;&gt;HeroBuilder&lt;/font&gt;&lt;/span&gt;&lt;/div&gt;&lt;div&gt;AddGoodDeed&lt;/div&gt;&lt;div&gt;(string): HerroBuilder&lt;/div&gt;" style="rounded=0;whiteSpace=wrap;html=1;align=left;" vertex="1" parent="1">
          <mxGeometry x="-1991" y="10" width="126" height="100" as="geometry" />
        </mxCell>
        <mxCell id="dDj1AJJ1aCDs6tU35lW--3" value="" style="endArrow=classic;html=1;rounded=0;fontSize=12;startSize=8;endSize=8;curved=1;entryX=0.5;entryY=1;entryDx=0;entryDy=0;" edge="1" parent="1">
          <mxGeometry width="50" height="50" relative="1" as="geometry">
            <mxPoint x="-1928" y="8" as="sourcePoint" />
            <mxPoint x="-1928.5" y="-72" as="targetPoint" />
          </mxGeometry>
        </mxCell>
        <mxCell id="dDj1AJJ1aCDs6tU35lW--4" value="&lt;div style=&quot;text-align: center;&quot;&gt;&lt;span style=&quot;background-color: transparent; color: light-dark(rgb(0, 0, 0), rgb(255, 255, 255));&quot;&gt;&lt;font style=&quot;font-size: 16px;&quot;&gt;Character&lt;/font&gt;&lt;/span&gt;&lt;/div&gt;&lt;div&gt;Name: string&lt;/div&gt;&lt;div&gt;Height: double&lt;/div&gt;&lt;div&gt;BodyType : string&lt;br&gt;HairColor: string&lt;/div&gt;&lt;div&gt;EyeColor: string&lt;/div&gt;&lt;div&gt;Inventory: List&amp;lt;tring&amp;gt;&lt;br&gt;Actions: List&amp;lt;tring&amp;gt;&lt;/div&gt;&lt;div&gt;&lt;br&gt;&lt;/div&gt;&lt;div&gt;Print():void&lt;/div&gt;" style="rounded=0;whiteSpace=wrap;html=1;align=left;" vertex="1" parent="1">
          <mxGeometry x="-1686" y="-276" width="168" height="148" as="geometry" />
        </mxCell>
        <mxCell id="dDj1AJJ1aCDs6tU35lW--5" value="&lt;div style=&quot;text-align: left;&quot;&gt;&lt;span style=&quot;background-color: transparent; color: light-dark(rgb(0, 0, 0), rgb(255, 255, 255));&quot;&gt;&lt;font style=&quot;font-size: 16px;&quot;&gt;CharacterDirector&lt;/font&gt;&lt;/span&gt;&lt;/div&gt;&lt;div&gt;&lt;div style=&quot;text-align: left;&quot;&gt;&lt;span style=&quot;background-color: transparent; color: light-dark(rgb(0, 0, 0), rgb(255, 255, 255));&quot;&gt;CreateHero&lt;/span&gt;&lt;/div&gt;&lt;div style=&quot;text-align: left;&quot;&gt;&lt;span style=&quot;background-color: transparent; color: light-dark(rgb(0, 0, 0), rgb(255, 255, 255));&quot;&gt;(ICharacterBuilder):&lt;/span&gt;&lt;/div&gt;&lt;div style=&quot;text-align: left;&quot;&gt;&lt;span style=&quot;background-color: transparent; color: light-dark(rgb(0, 0, 0), rgb(255, 255, 255));&quot;&gt;Character&lt;/span&gt;&lt;/div&gt;&lt;/div&gt;&lt;div style=&quot;text-align: left;&quot;&gt;CreateEnemy()&lt;br&gt;&lt;/div&gt;" style="rounded=0;whiteSpace=wrap;html=1;" vertex="1" parent="1">
          <mxGeometry x="-1662" y="-17" width="144" height="93" as="geometry" />
        </mxCell>
        <mxCell id="dDj1AJJ1aCDs6tU35lW--6" value="" style="endArrow=classic;html=1;rounded=0;fontSize=12;startSize=8;endSize=8;curved=1;entryX=0.5;entryY=1;entryDx=0;entryDy=0;" edge="1" parent="1" target="dDj1AJJ1aCDs6tU35lW--4">
          <mxGeometry width="50" height="50" relative="1" as="geometry">
            <mxPoint x="-1609.92" y="-16" as="sourcePoint" />
            <mxPoint x="-1610.42" y="-96" as="targetPoint" />
            <Array as="points">
              <mxPoint x="-1610.42" y="-56" />
              <mxPoint x="-1602" y="-70" />
            </Array>
          </mxGeometry>
        </mxCell>
        <mxCell id="dDj1AJJ1aCDs6tU35lW--7" value="" style="endArrow=block;startArrow=block;endFill=1;startFill=1;html=1;rounded=0;fontSize=12;startSize=8;endSize=8;curved=1;" edge="1" parent="1">
          <mxGeometry width="160" relative="1" as="geometry">
            <mxPoint x="-1834" y="-200" as="sourcePoint" />
            <mxPoint x="-1687" y="-198" as="targetPoint" />
          </mxGeometry>
        </mxCell>
      </root>
    </mxGraphModel>
  </diagram>
</mxfile>
